<svg width="25" height="24" viewBox="0 0 25 24" fill="none" xmlns="http://www.w3.org/2000/svg">
<path d="M7.69995 11.487V8.45796C7.70932 7.86254 7.84101 7.27476 8.08748 6.72828C8.33394 6.1818 8.69034 5.68737 9.13623 5.27331C9.58213 4.85926 10.1088 4.53371 10.686 4.31534C11.2632 4.09697 11.8796 3.99005 12.5 4.00073C13.1203 3.99005 13.7367 4.09697 14.3139 4.31534C14.8911 4.53371 15.4178 4.85926 15.8637 5.27331C16.3096 5.68737 16.666 6.1818 16.9125 6.72828C17.1588 7.27476 17.2906 7.86254 17.3 8.45796V11.487" stroke="white" stroke-width="2" stroke-linecap="round" stroke-linejoin="round"/>
<path d="M5.78 9.18335H7.06C7.22974 9.18335 7.39253 9.2592 7.51254 9.39421C7.63257 9.52921 7.7 9.71232 7.7 9.90326V14.2227C7.7 14.4136 7.63257 14.5967 7.51254 14.7317C7.39253 14.8668 7.22974 14.9426 7.06 14.9426H5.78C5.44052 14.9426 5.11495 14.7909 4.8749 14.5209C4.63486 14.2509 4.5 13.8847 4.5 13.5028V10.6232C4.5 10.2413 4.63486 9.87508 4.8749 9.60506C5.11495 9.33505 5.44052 9.18335 5.78 9.18335Z" stroke="white" stroke-width="2" stroke-linecap="round" stroke-linejoin="round"/>
<path d="M19.2666 14.6515H18.0332C17.8697 14.6515 17.7128 14.5813 17.5971 14.4564C17.4815 14.3315 17.4165 14.1621 17.4165 13.9855V9.98991C17.4165 9.81329 17.4815 9.6439 17.5971 9.51903C17.7128 9.39414 17.8697 9.32397 18.0332 9.32397H19.2666C19.5937 9.32397 19.9075 9.4643 20.1388 9.71407C20.37 9.96385 20.5 10.3026 20.5 10.6558V13.3196C20.5 13.6728 20.37 14.0116 20.1388 14.2614C19.9075 14.5111 19.5937 14.6515 19.2666 14.6515Z" stroke="white" stroke-width="2" stroke-linecap="round" stroke-linejoin="round"/>
<path d="M15.1667 18.3982C15.7325 18.3982 16.2751 18.0555 16.6752 17.4456C17.0753 16.8356 17.3001 16.0084 17.3001 15.1459V11.4871" stroke="white" stroke-width="2" stroke-linecap="round" stroke-linejoin="round"/>
<path d="M14.5 18.6667C14.5 19.0203 14.3683 19.3595 14.1339 19.6095C13.8995 19.8596 13.5815 20 13.25 20H11.75C11.4185 20 11.1005 19.8596 10.8661 19.6095C10.6317 19.3595 10.5 19.0203 10.5 18.6667C10.5 18.3131 10.6317 17.9739 10.8661 17.7239C11.1005 17.4739 11.4185 17.3334 11.75 17.3334H13.25C13.5815 17.3334 13.8995 17.4739 14.1339 17.7239C14.3683 17.9739 14.5 18.3131 14.5 18.6667Z" stroke="white" stroke-width="2" stroke-linecap="round" stroke-linejoin="round"/>
</svg>
