<svg width="126" height="19" viewBox="0 0 126 19" fill="none" xmlns="http://www.w3.org/2000/svg">
<g clip-path="url(#clip0_90_3673)">
<path d="M1.93583 4.66852C1.93583 2.46582 1.7144 2.25888 0 2.09052V1.16806H6.76701V2.09052C5.14655 2.26239 4.93519 2.46933 4.93519 4.66852V9.15809C5.38476 9.00376 5.83768 8.59689 6.31074 8.08129C7.36085 6.89928 8.79678 4.89651 9.67915 3.41284C10.1455 2.63769 10.0348 2.27291 9.16583 2.15366L8.7062 2.08702V1.16455H14.5439V2.08702C13.1583 2.26239 12.5745 2.46933 11.2292 3.9565C9.97774 5.35248 8.81691 6.83614 7.93791 8.01816C9.19938 10.3401 10.9977 13.5284 12.6081 15.8539C13.5441 17.1867 13.9568 17.5445 14.9297 17.6883V18.6107H10.4676C9.25306 16.7202 7.58228 13.6827 6.13292 11.0135C5.69006 10.2138 5.35121 10.1121 4.92848 10.2103V15.1103C4.88487 17.313 5.13984 17.5199 6.86431 17.6848V18.6072H0.10736V17.6848C1.71775 17.5164 1.93583 17.313 1.93583 15.1103V4.66852Z" fill="white"/>
<path d="M17.9458 13.3285C18.4659 14.8437 19.8649 17.7935 22.2469 17.7935C23.7936 17.7935 24.733 16.5589 24.733 14.8332C24.733 13.1075 23.7332 11.9535 21.9248 10.9504C19.7508 9.75786 17.6103 8.12338 17.6103 5.46822C17.6103 2.81306 19.5629 0.322754 23.1058 0.322754C24.4545 0.322754 25.6891 0.684024 26.4843 0.971637C26.5715 2.04843 26.7527 3.23747 26.9909 4.98068L26.0213 5.17009C25.4644 3.43389 24.7028 1.52582 22.7468 1.52582C21.3847 1.52582 20.4621 2.72538 20.4621 4.26165C20.4621 5.71725 21.4853 6.73091 23.2937 7.67442C25.763 8.96167 27.6854 10.5646 27.6854 13.4688C27.6854 16.6536 25.3201 18.9966 21.7806 18.9966C20.9754 18.9966 20.1199 18.8633 19.469 18.6563C18.7812 18.4564 18.231 18.2214 17.758 17.9969C17.5499 17.2288 17.2681 15.3663 16.9997 13.6126L17.9492 13.325L17.9458 13.3285Z" fill="white"/>
<path d="M33.6841 11.5046C34.288 9.43518 34.8852 7.48853 35.5327 5.4577H35.6099L37.3276 11.5046H33.6841ZM37.7537 12.9041C38.0221 13.7108 38.4885 15.233 38.73 15.9942C39.1494 17.3165 38.9514 17.5164 37.5289 17.7023V18.6528H44.051V17.7023C42.7728 17.5304 42.4104 17.3305 41.6556 14.991C40.7363 12.1289 39.7231 8.80032 38.7099 5.48927L37.1498 0.322754L35.8648 0.691039L31.1108 15.0366C30.3459 17.3445 30.0339 17.5234 28.6114 17.6988V18.6493H34.0095V17.6988C32.2985 17.4638 32.1509 17.2779 32.5266 15.7521C32.795 14.6753 33.144 13.3881 33.3117 12.9006H37.7571L37.7537 12.9041Z" fill="white"/>
<path d="M71.9679 7.92333V6.2678H70.4045C70.4246 6.25026 70.4414 6.23272 70.4615 6.21168C70.9614 5.68906 70.9111 4.85779 70.9111 4.85779V2.17457C70.9111 2.17457 71.0218 1.32226 70.532 0.936433C70.0421 0.547103 69.3007 0.627775 69.3007 0.627775H61.6983V2.2833H68.8008V4.85779C68.8008 4.85779 68.7874 5.40847 68.6498 5.7978C68.5861 5.98018 68.5056 6.14153 68.4385 6.2678H60.826V7.92333H65.013V9.14042H61.6983V10.7959H68.8008V13.616H70.9111V10.6907C70.9111 10.6907 71.0218 9.83841 70.532 9.44908C70.0421 9.05975 69.3007 9.14042 69.3007 9.14042H67.1233V7.92333H71.9679Z" fill="white"/>
<path d="M59.3296 2.56748H58.3164V0.592773H55.5117V1.06979H56.2095V10.3365H58.3164V4.15988H59.3296V2.56748Z" fill="white"/>
<path d="M54.1328 4.65091C54.1328 3.92837 53.908 3.26195 53.5289 2.71128H54.3106V1.11538H51.801L51.8078 0H48.9996V0.477017H49.6908V1.11889H47.141V2.71128H47.9629C47.5838 3.26195 47.359 3.93188 47.359 4.65091C47.359 6.53443 48.8755 8.06018 50.7476 8.06018C52.6197 8.06018 54.1361 6.53443 54.1361 4.65091H54.1328ZM49.3754 4.65091C49.3754 3.64076 49.9122 2.813 50.6 2.71128H50.8885C51.5763 2.813 52.1097 3.64427 52.1097 4.65091C52.1097 5.73122 51.4991 6.60458 50.7442 6.60458C49.9893 6.60458 49.3754 5.73122 49.3754 4.65091Z" fill="white"/>
<path d="M51.224 9.34741H48.4159V9.82092H49.1003V12.1709C49.1003 12.1709 48.9896 12.9882 49.4794 13.3635C49.9692 13.7388 50.7107 13.6616 50.7107 13.6616H58.3131V12.0692H51.2072L51.2206 9.34741H51.224Z" fill="white"/>
<path d="M84.2136 6.21885H82.8414V2.28346H84.2136V0.62793H74.8096V2.28346H76.3596V6.22235H74.8096V7.87788H84.2136V6.22235V6.21885ZM78.4699 2.28346H80.7311V6.22235H78.4699V2.28346Z" fill="white"/>
<path d="M82.771 12.0062L82.781 9.1792H79.9729V9.67375H80.6607V12.0062H78.8658L78.8758 9.1792H76.0677V9.67375H76.7588V12.0062H73.9608V13.6582H85.1027V12.0062H82.771Z" fill="white"/>
<path d="M87.3807 6.55908V8.21461H92.175V10.2069H94.2819V8.21461H98.526V6.55908H87.3807Z" fill="white"/>
<path d="M90.4774 9.1792H87.6693V9.67375H88.3436V11.9747C88.3436 11.9747 88.357 12.6797 88.8469 13.1918C89.3367 13.7038 90.0848 13.6618 90.0848 13.6618H97.9322V12.0062H90.474V9.1792H90.4774Z" fill="white"/>
<path d="M87.3203 4.33884L87.9779 5.93123C89.9942 5.93123 91.7892 5.13504 92.9433 3.90041C94.0974 5.13855 95.8923 5.93123 97.9087 5.93123L98.4824 4.33884C96.7512 4.33884 94.4362 3.62332 94.0773 2.28346H97.7007V0.62793H88.0081V2.28346H91.7925C91.3664 3.67242 89.0515 4.33884 87.3203 4.33884Z" fill="white"/>
<path d="M114.939 4.68239C114.939 6.56591 116.455 8.09166 118.327 8.09166C120.199 8.09166 121.716 6.56591 121.716 4.68239C121.716 3.95985 121.491 3.29343 121.112 2.73925H121.893V1.14686H119.384L119.371 0.00341797H116.562V0.480435H117.274V1.14686H114.724V2.73925H115.546C115.167 3.28992 114.942 3.95985 114.942 4.68239H114.939ZM119.693 4.68239C119.693 5.75919 119.082 6.63606 118.327 6.63606C117.572 6.63606 116.958 5.76269 116.958 4.68239C116.958 3.67224 117.495 2.84447 118.183 2.73925H118.471C119.159 2.84447 119.696 3.67224 119.696 4.68239H119.693Z" fill="white"/>
<path d="M125.785 0.634766H122.977V1.11178H123.682V10.0208H119.381V8.57219H119.367V8.55114H116.559V9.02465H117.27V10.0208H114.573V11.5746H123.682V13.6685H125.792L125.785 0.634766Z" fill="white"/>
<path d="M107.705 4.67895C107.705 3.95641 107.48 3.28999 107.101 2.73581H107.883V1.14341H105.374V0.010498H102.569V0.487515H103.263V1.14692H100.713V2.73931H101.535C101.156 3.28999 100.932 3.95992 100.932 4.68246C100.932 6.56597 102.448 8.09172 104.32 8.09172C106.192 8.09172 107.705 6.56597 107.705 4.68246V4.67895ZM102.951 4.67895C102.951 3.6688 103.488 2.84103 104.176 2.73581H104.464C105.152 2.83752 105.686 3.6688 105.686 4.67895C105.686 5.75574 105.075 6.63261 104.32 6.63261C103.565 6.63261 102.951 5.75925 102.951 4.67895Z" fill="white"/>
<path d="M111.882 12.0727V0.641846H109.077V1.11886H109.782V2.97782H108.162V4.57022H109.782V5.22261H108.162V6.815H109.782V10.2348H104.776V9.32636H101.985V9.82091H102.666V12.1534C102.666 12.1534 102.612 12.8549 102.948 13.2617C103.297 13.6826 104.112 13.6897 104.112 13.6897H110.366C110.366 13.6897 111.017 13.7528 111.483 13.2828C111.946 12.8163 111.882 12.0692 111.882 12.0692V12.0727ZM109.782 12.1008H104.776V11.5255H109.782V12.1008Z" fill="white"/>
<path d="M47.8723 16.0223C47.8723 15.5944 47.8287 15.5594 47.4966 15.5278V15.3384H48.8587V15.5278C48.5467 15.5594 48.5031 15.5979 48.5031 16.0223V16.8711C48.5937 16.8431 48.6809 16.7624 48.7748 16.6642C48.9694 16.4502 49.2512 16.0609 49.419 15.7803C49.5096 15.633 49.4894 15.5593 49.315 15.5383L49.2311 15.5278V15.3384H50.3986V15.5278C50.1269 15.5594 50.0128 15.5944 49.7478 15.882C49.4861 16.1661 49.2747 16.4397 49.1271 16.6397C49.362 17.0711 49.6941 17.6779 50.033 18.1619C50.2074 18.4109 50.2913 18.4811 50.4758 18.5091V18.6985H49.5565C49.3351 18.3478 49.0265 17.7831 48.7379 17.2464C48.6541 17.0921 48.587 17.0746 48.5031 17.0886V18.0111C48.493 18.439 48.5467 18.4741 48.8788 18.5056V18.695H47.5134V18.5056C47.8254 18.4741 47.869 18.4355 47.869 18.0111V16.0223H47.8723Z" fill="white"/>
<path d="M51.8715 15.5066C52.3311 15.5066 52.5559 16.1239 52.5559 17.127C52.5559 18.0495 52.3378 18.523 51.9788 18.523C51.489 18.523 51.2676 17.797 51.2676 16.9166C51.2676 16.0362 51.4924 15.5066 51.8681 15.5066H51.8748H51.8715ZM51.9486 15.2681C50.9589 15.2681 50.5295 16.194 50.5295 17.0323C50.5295 18.0249 51.0529 18.7615 51.8883 18.7615C52.7236 18.7615 53.2772 18.0916 53.2772 16.9727C53.2772 15.952 52.7136 15.2681 51.9486 15.2681Z" fill="white"/>
<path d="M54.74 15.7979C54.74 15.6821 54.7467 15.6365 54.7735 15.605C54.8004 15.5769 54.8574 15.5594 54.9513 15.5594C55.1996 15.5594 55.5049 15.7593 55.5049 16.2784C55.5049 16.5485 55.4345 16.7589 55.2969 16.8747C55.1896 16.9694 55.052 17.015 54.8708 17.015H54.7433V15.7979H54.74ZM54.1059 18.0111C54.1059 18.439 54.0623 18.4846 53.7301 18.5057V18.6951H55.1023V18.5057C54.7836 18.4846 54.74 18.4355 54.74 18.0111V17.2359H54.8339C54.9782 17.243 55.0554 17.3026 55.1191 17.4674C55.2265 17.7445 55.3674 18.0392 55.4949 18.2461C55.6962 18.5828 55.8572 18.7196 56.4275 18.7407C56.498 18.7407 56.5617 18.7477 56.6288 18.7512L56.6624 18.5828C56.5584 18.5407 56.4812 18.4671 56.3739 18.3408C56.29 18.2461 56.1759 18.0812 56.0048 17.7936C55.8673 17.5656 55.7062 17.2009 55.6391 17.0501C55.9612 16.8992 56.1994 16.6432 56.1994 16.1977C56.1994 15.8821 56.0753 15.6506 55.8706 15.5103C55.6894 15.3875 55.4479 15.3279 55.1057 15.3279H53.7637V15.5173C54.0757 15.5594 54.1126 15.5734 54.1126 15.9943L54.1059 18.0041V18.0111Z" fill="white"/>
<path d="M57.3368 16.0152C57.3368 15.5943 57.2931 15.5557 56.9811 15.5241V15.3347H59.1787C59.1854 15.4189 59.2055 15.7977 59.2256 16.1064L59.0277 16.1309C58.9706 15.9135 58.9136 15.7802 58.8398 15.6995C58.7626 15.6153 58.6217 15.5767 58.3634 15.5767H58.1722C58.0078 15.5767 57.9843 15.5978 57.9843 15.7661V16.8043H58.3298C58.7022 16.8043 58.719 16.7763 58.7962 16.401H58.9941V17.4953H58.7962C58.719 17.1025 58.7056 17.0779 58.3298 17.0779H57.9843V18.0004C57.9843 18.2494 58.0044 18.3547 58.095 18.4038C58.1722 18.4458 58.3097 18.4494 58.4976 18.4494C58.7224 18.4494 58.9035 18.4108 59.0008 18.2845C59.0847 18.1793 59.1585 18.0144 59.2458 17.7935L59.4437 17.8391C59.4169 18.032 59.3296 18.5441 59.286 18.6914H56.914V18.502C57.2898 18.4704 57.3334 18.4283 57.3334 18.0074V16.0117L57.3368 16.0152Z" fill="white"/>
<path d="M60.7052 17.3796C60.8193 17.0008 60.93 16.6465 61.0541 16.2782H61.0675L61.3896 17.3796H60.7052ZM61.4735 17.6532C61.5137 17.7689 61.5976 18.032 61.6479 18.1828C61.7318 18.4388 61.6949 18.4704 61.4299 18.5055V18.6949H62.7048V18.5055C62.4666 18.4739 62.3961 18.4388 62.2518 18.0039C62.074 17.4637 61.8794 16.8464 61.6882 16.2326L61.3896 15.2681L61.1212 15.3417L60.2087 18.0179C60.0644 18.4423 60.004 18.4704 59.7322 18.5055V18.6949H60.7723V18.5055C60.4469 18.4599 60.42 18.4283 60.4938 18.1512C60.5475 17.9548 60.6045 17.7338 60.6347 17.6532H61.4768H61.4735Z" fill="white"/>
<path d="M63.4831 16.2852C63.4831 15.9345 63.4831 15.8258 63.3992 15.7065C63.3154 15.5837 63.2046 15.5487 63.0235 15.5311V15.3347H63.8756L65.4256 17.583H65.4357V16.657C65.4357 16.2291 65.4089 15.9696 65.3854 15.8047C65.3585 15.6293 65.2344 15.5452 64.9425 15.5311V15.3347H66.0933V15.5311C65.8752 15.5417 65.7678 15.6293 65.7477 15.8047C65.7276 15.9696 65.7007 16.2291 65.7007 16.657V18.737H65.3686L63.7549 16.2642H63.7448V17.3831C63.7448 17.811 63.7716 18.067 63.7918 18.2249C63.8186 18.4108 63.9461 18.4879 64.238 18.5055V18.7019H63.0805V18.5055C63.2986 18.495 63.4093 18.4143 63.4328 18.2284C63.4529 18.067 63.4797 17.8145 63.4797 17.3866V16.2887L63.4831 16.2852Z" fill="white"/>
<path d="M67.7875 17.6812C67.8916 17.9688 68.17 18.523 68.6162 18.523C68.9014 18.523 69.0759 18.295 69.0759 17.9899C69.0759 17.6847 68.898 17.4637 68.5458 17.2778C68.1029 17.0428 67.7104 16.7307 67.7104 16.2431C67.7104 15.717 68.0895 15.2681 68.7806 15.2681C69.039 15.2681 69.2872 15.3347 69.4449 15.3943C69.4617 15.5943 69.4952 15.8222 69.5422 16.1555L69.3443 16.194C69.2335 15.8643 69.0826 15.5066 68.7169 15.5066C68.4686 15.5066 68.2908 15.7205 68.2908 16.0081C68.2908 16.2642 68.4787 16.4536 68.8276 16.629C69.3308 16.8815 69.673 17.1902 69.673 17.7198C69.673 18.3196 69.2168 18.765 68.5223 18.765C68.368 18.765 68.2036 18.7405 68.0727 18.6984C67.9385 18.6598 67.8312 18.6177 67.7406 18.5721C67.7003 18.4318 67.6433 18.0776 67.593 17.7443L67.7842 17.6847L67.7875 17.6812Z" fill="white"/>
<path d="M70.9681 15.5768H70.8104C70.5923 15.5768 70.4783 15.6434 70.4044 15.7346C70.3407 15.8118 70.2803 15.9591 70.2266 16.2082H70.0253C70.0421 15.8188 70.0723 15.4611 70.079 15.198H70.2031C70.2702 15.2927 70.3172 15.3278 70.4413 15.3278H72.1625C72.2765 15.3278 72.3168 15.2962 72.3906 15.198H72.5181C72.5248 15.4155 72.5449 15.8223 72.565 16.1906L72.3638 16.2046C72.3067 15.9311 72.2463 15.7802 72.1725 15.6961C72.0987 15.6084 71.9679 15.5698 71.8102 15.5698H71.6189V18.004C71.6189 18.4319 71.6626 18.467 72.0584 18.4985V18.6879H70.5554V18.4985C70.9278 18.467 70.9748 18.4284 70.9748 18.004V15.5698L70.9681 15.5768Z" fill="white"/>
<path d="M73.4743 17.3796C73.5883 17.0008 73.699 16.6465 73.8232 16.2782H73.8366L74.1587 17.3796H73.4743ZM74.2425 17.6532C74.2828 17.7689 74.3667 18.032 74.417 18.1828C74.5009 18.4388 74.464 18.4704 74.1989 18.5055V18.6949H75.4738V18.5055C75.2356 18.4739 75.1652 18.4388 75.0209 18.0039C74.8431 17.4637 74.6519 16.8464 74.4573 16.2326L74.1587 15.2681L73.8903 15.3417L72.9777 18.0179C72.8335 18.4423 72.7731 18.4704 72.5013 18.5055V18.6949H73.5414V18.5055C73.2159 18.4599 73.1891 18.4283 73.2629 18.1512C73.3166 17.9548 73.3736 17.7338 73.4038 17.6532H74.2459H74.2425Z" fill="white"/>
<path d="M76.2522 16.2852C76.2522 15.9345 76.2522 15.8258 76.1683 15.7065C76.0845 15.5837 75.9737 15.5487 75.7926 15.5311V15.3347H76.6447L78.1947 17.583H78.2048V16.657C78.2048 16.2291 78.178 15.9696 78.1545 15.8047C78.1276 15.6293 78.0035 15.5452 77.7116 15.5311V15.3347H78.8624V15.5311C78.6443 15.5417 78.537 15.6293 78.5168 15.8047C78.4967 15.9696 78.4699 16.2291 78.4699 16.657V18.737H78.1377L76.524 16.2642H76.5139V17.3831C76.5139 17.811 76.5407 18.067 76.5609 18.2249C76.5877 18.4108 76.7152 18.4879 77.0071 18.5055V18.7019H75.8496V18.5055C76.071 18.495 76.1784 18.4143 76.2019 18.2284C76.222 18.067 76.2489 17.8145 76.2489 17.3866V16.2887L76.2522 16.2852Z" fill="white"/>
<path d="M80.2782 15.8609C80.2782 15.7031 80.2916 15.64 80.3319 15.6119C80.3621 15.5873 80.4157 15.5628 80.513 15.5628C80.7244 15.5628 80.9626 15.6435 81.1337 15.8574C81.3115 16.0749 81.4323 16.4362 81.4323 16.9798C81.4323 17.9935 81.0163 18.4635 80.5667 18.4635C80.3285 18.4635 80.2782 18.3407 80.2782 17.997V15.8679V15.8609ZM79.6307 18.004C79.6307 18.4319 79.5871 18.474 79.2482 18.5056V18.695H80.3184C80.872 18.695 81.3115 18.5652 81.6369 18.2671C81.9557 17.9759 82.1536 17.5305 82.1536 16.8816C82.1536 16.4046 81.9959 16.0398 81.7812 15.7838C81.5027 15.4541 81.0431 15.3313 80.4862 15.3313H79.2817V15.5207C79.587 15.5523 79.634 15.5944 79.634 16.0223V18.004H79.6307Z" fill="white"/>
<path d="M83.1937 17.3796C83.3077 17.0008 83.4184 16.6465 83.5426 16.2782H83.556L83.8781 17.3796H83.1937ZM83.9619 17.6532C84.0022 17.7689 84.0861 18.032 84.1364 18.1828C84.2203 18.4388 84.1834 18.4704 83.915 18.5055V18.6949H85.1899V18.5055C84.9517 18.4739 84.8812 18.4388 84.737 18.0039C84.5591 17.4637 84.3645 16.8464 84.1733 16.2326L83.8747 15.2681L83.6063 15.3417L82.6938 18.0179C82.5495 18.4423 82.4857 18.4704 82.2173 18.5055V18.6949H83.2574V18.5055C82.932 18.4599 82.9051 18.4283 82.9789 18.1512C83.0326 17.9548 83.0896 17.7338 83.1198 17.6532H83.9619Z" fill="white"/>
<path d="M86.6057 15.7979C86.6057 15.6821 86.6124 15.6365 86.6393 15.605C86.6661 15.5769 86.7231 15.5594 86.8171 15.5594C87.0653 15.5594 87.3706 15.7593 87.3706 16.2784C87.3706 16.5485 87.3002 16.7589 87.1626 16.8747C87.0553 16.9694 86.9177 17.015 86.7365 17.015H86.6091V15.7979H86.6057ZM85.9716 18.0111C85.9716 18.439 85.928 18.4846 85.5959 18.5057V18.6951H86.968V18.5057C86.6493 18.4846 86.6057 18.4355 86.6057 18.0111V17.2359H86.6996C86.8439 17.243 86.9211 17.3026 86.9848 17.4674C87.0922 17.7445 87.2331 18.0392 87.3606 18.2461C87.5619 18.5828 87.7229 18.7196 88.2933 18.7407C88.3637 18.7407 88.4275 18.7477 88.4946 18.7512L88.5281 18.5828C88.4241 18.5407 88.3469 18.4671 88.2396 18.3408C88.1557 18.2461 88.0416 18.0812 87.8705 17.7936C87.733 17.5656 87.5719 17.2009 87.5048 17.0501C87.8269 16.8992 88.0651 16.6432 88.0651 16.1977C88.0651 15.8821 87.941 15.6506 87.7363 15.5103C87.5552 15.3875 87.3136 15.3279 86.9714 15.3279H85.6294V15.5173C85.9414 15.5594 85.9783 15.5734 85.9783 15.9943L85.9716 18.0041V18.0111Z" fill="white"/>
<path d="M89.8533 15.8609C89.8533 15.7031 89.8667 15.64 89.907 15.6119C89.9338 15.5873 89.9909 15.5628 90.0882 15.5628C90.2995 15.5628 90.5377 15.6435 90.7088 15.8574C90.8867 16.0749 91.0074 16.4362 91.0074 16.9798C91.0074 17.9935 90.5914 18.4635 90.1418 18.4635C89.9036 18.4635 89.8533 18.3407 89.8533 17.997V15.8679V15.8609ZM89.2058 18.004C89.2058 18.4319 89.1622 18.474 88.8233 18.5056V18.695H89.8936C90.4472 18.695 90.8867 18.5652 91.2121 18.2671C91.5308 17.9759 91.7288 17.5305 91.7288 16.8816C91.7288 16.4046 91.5711 16.0398 91.3564 15.7838C91.0779 15.4541 90.6183 15.3313 90.0613 15.3313H88.8569V15.5207C89.1622 15.5523 89.2092 15.5944 89.2092 16.0223V18.004H89.2058Z" fill="white"/>
<path d="M92.4333 17.6812C92.5373 17.9688 92.8158 18.523 93.262 18.523C93.5472 18.523 93.7216 18.295 93.7216 17.9899C93.7216 17.6847 93.5438 17.4637 93.1915 17.2778C92.7487 17.0428 92.3561 16.7307 92.3561 16.2431C92.3561 15.717 92.7352 15.2681 93.4264 15.2681C93.6847 15.2681 93.933 15.3347 94.0907 15.3943C94.1074 15.5943 94.141 15.8222 94.188 16.1555L93.9934 16.194C93.8827 15.8643 93.7317 15.5066 93.366 15.5066C93.1177 15.5066 92.9399 15.7205 92.9399 16.0081C92.9399 16.2642 93.1278 16.4536 93.4767 16.629C93.9799 16.8815 94.3255 17.1902 94.3255 17.7198C94.3255 18.3196 93.8692 18.765 93.1748 18.765C93.0204 18.765 92.856 18.7405 92.7252 18.6984C92.591 18.6598 92.4836 18.6177 92.393 18.5721C92.3528 18.4318 92.2957 18.0776 92.2454 17.7443L92.4366 17.6847L92.4333 17.6812Z" fill="white"/>
<path d="M96.6136 17.3796C96.7277 17.0008 96.8384 16.6465 96.9626 16.2782H96.976L97.2981 17.3796H96.6136ZM97.3819 17.6532C97.4222 17.7689 97.5061 18.032 97.5564 18.1828C97.6403 18.4388 97.6034 18.4704 97.335 18.5055V18.6949H98.6099V18.5055C98.3717 18.4739 98.3012 18.4388 98.1569 18.0039C97.9791 17.4637 97.7845 16.8464 97.5933 16.2326L97.2947 15.2681L97.0263 15.3417L96.1137 18.0179C95.9695 18.4423 95.9057 18.4704 95.6373 18.5055V18.6949H96.6774V18.5055C96.3519 18.4599 96.3251 18.4283 96.3989 18.1512C96.4526 17.9548 96.5096 17.7338 96.5398 17.6532H97.3819Z" fill="white"/>
<path d="M99.1299 17.6812C99.2339 17.9688 99.5123 18.523 99.9586 18.523C100.244 18.523 100.418 18.295 100.418 17.9899C100.418 17.6847 100.24 17.4637 99.8881 17.2778C99.4452 17.0428 99.0527 16.7307 99.0527 16.2431C99.0527 15.717 99.4318 15.2681 100.123 15.2681C100.378 15.2681 100.63 15.3347 100.787 15.3943C100.804 15.5943 100.838 15.8222 100.885 16.1555L100.687 16.194C100.576 15.8643 100.425 15.5066 100.059 15.5066C99.8109 15.5066 99.6331 15.7205 99.6331 16.0081C99.6331 16.2642 99.821 16.4536 100.17 16.629C100.673 16.8815 101.019 17.1902 101.019 17.7198C101.019 18.3196 100.562 18.765 99.868 18.765C99.7136 18.765 99.5492 18.7405 99.4184 18.6984C99.2842 18.6598 99.1768 18.6177 99.0862 18.5721C99.046 18.4318 98.989 18.0776 98.9386 17.7443L99.1299 17.6847V17.6812Z" fill="white"/>
<path d="M101.696 17.6812C101.8 17.9688 102.079 18.523 102.525 18.523C102.81 18.523 102.985 18.295 102.985 17.9899C102.985 17.6847 102.807 17.4637 102.455 17.2778C102.012 17.0428 101.619 16.7307 101.619 16.2431C101.619 15.717 101.998 15.2681 102.689 15.2681C102.948 15.2681 103.196 15.3347 103.354 15.3943C103.371 15.5943 103.407 15.8222 103.451 16.1555L103.256 16.194C103.146 15.8643 102.995 15.5066 102.629 15.5066C102.381 15.5066 102.203 15.7205 102.203 16.0081C102.203 16.2642 102.391 16.4536 102.74 16.629C103.243 16.8815 103.589 17.1902 103.589 17.7198C103.589 18.3196 103.132 18.765 102.438 18.765C102.284 18.765 102.119 18.7405 101.988 18.6984C101.854 18.6598 101.747 18.6177 101.656 18.5721C101.616 18.4318 101.559 18.0776 101.509 17.7443L101.7 17.6847L101.696 17.6812Z" fill="white"/>
<path d="M105.427 15.5066C105.887 15.5066 106.112 16.1239 106.112 17.127C106.112 18.0495 105.894 18.523 105.535 18.523C105.045 18.523 104.823 17.797 104.823 16.9166C104.823 16.0362 105.048 15.5066 105.424 15.5066H105.431H105.427ZM105.504 15.2681C104.515 15.2681 104.085 16.194 104.085 17.0323C104.085 18.0249 104.612 18.7615 105.444 18.7615C106.276 18.7615 106.833 18.0916 106.833 16.9727C106.833 15.952 106.269 15.2681 105.504 15.2681Z" fill="white"/>
<path d="M109.708 16.2538C109.524 15.6891 109.279 15.5067 108.983 15.5067C108.504 15.5067 108.178 16.1802 108.178 16.9553C108.178 17.8953 108.531 18.5267 108.99 18.5267C109.342 18.5267 109.544 18.2145 109.792 17.7515L109.997 17.7936C109.936 18.0181 109.842 18.439 109.765 18.6389C109.641 18.674 109.299 18.7617 108.994 18.7617C107.856 18.7617 107.444 17.8918 107.444 17.064C107.444 16.0188 108.081 15.2717 109.108 15.2717C109.416 15.2717 109.701 15.3454 109.826 15.377C109.859 15.6961 109.879 15.9206 109.906 16.2258L109.708 16.2573V16.2538Z" fill="white"/>
<path d="M110.745 16.0223C110.745 15.5944 110.695 15.5594 110.379 15.5278V15.3384H111.758V15.5278C111.439 15.5594 111.392 15.5979 111.392 16.0223V18.0111C111.392 18.439 111.439 18.4741 111.758 18.5056V18.695H110.379V18.5056C110.695 18.4741 110.745 18.4355 110.745 18.0111V16.0223Z" fill="white"/>
<path d="M113.15 17.3796C113.264 17.0008 113.375 16.6465 113.499 16.2782H113.513L113.835 17.3796H113.15ZM113.919 17.6532C113.959 17.7689 114.043 18.032 114.093 18.1828C114.177 18.4388 114.14 18.4704 113.872 18.5055V18.6949H115.147V18.5055C114.908 18.4739 114.838 18.4388 114.694 18.0039C114.516 17.4637 114.321 16.8464 114.13 16.2326L113.831 15.2681L113.563 15.3417L112.65 18.0179C112.506 18.4423 112.442 18.4704 112.174 18.5055V18.6949H113.214V18.5055C112.889 18.4599 112.862 18.4283 112.936 18.1512C112.989 17.9548 113.046 17.7338 113.077 17.6532H113.919Z" fill="white"/>
<path d="M115.945 15.5768H115.787C115.569 15.5768 115.455 15.6434 115.381 15.7346C115.318 15.8118 115.257 15.9591 115.204 16.2082H115.002C115.019 15.8188 115.049 15.4611 115.056 15.198H115.18C115.247 15.2927 115.294 15.3278 115.418 15.3278H117.136C117.25 15.3278 117.29 15.2962 117.364 15.198H117.492C117.498 15.4155 117.519 15.8223 117.539 16.1906L117.337 16.2046C117.28 15.9311 117.22 15.7802 117.146 15.6961C117.072 15.6084 116.942 15.5698 116.784 15.5698H116.593V18.004C116.593 18.4319 116.636 18.467 117.032 18.4985V18.6879H115.529V18.4985C115.901 18.467 115.948 18.4284 115.948 18.004V15.5698L115.945 15.5768Z" fill="white"/>
<path d="M118.334 16.0223C118.334 15.5944 118.284 15.5594 117.968 15.5278V15.3384H119.347V15.5278C119.028 15.5594 118.981 15.5979 118.981 16.0223V18.0111C118.981 18.439 119.028 18.4741 119.347 18.5056V18.695H117.968V18.5056C118.284 18.4741 118.334 18.4355 118.334 18.0111V16.0223Z" fill="white"/>
<path d="M121.145 15.5066C121.605 15.5066 121.83 16.1239 121.83 17.127C121.83 18.0495 121.612 18.523 121.253 18.523C120.763 18.523 120.541 17.797 120.541 16.9166C120.541 16.0362 120.766 15.5066 121.142 15.5066H121.145ZM121.222 15.2681C120.233 15.2681 119.803 16.194 119.803 17.0323C119.803 18.0249 120.33 18.7615 121.162 18.7615C121.994 18.7615 122.551 18.0916 122.551 16.9727C122.551 15.952 121.987 15.2681 121.226 15.2681H121.219H121.222Z" fill="white"/>
<path d="M123.386 16.2852C123.386 15.9345 123.386 15.8258 123.303 15.7065C123.219 15.5837 123.108 15.5487 122.927 15.5311V15.3347H123.779L125.329 17.583H125.339V16.657C125.339 16.2291 125.312 15.9696 125.289 15.8047C125.262 15.6293 125.138 15.5452 124.846 15.5311V15.3347H125.997V15.5311C125.779 15.5417 125.671 15.6293 125.651 15.8047C125.631 15.9696 125.604 16.2291 125.604 16.657V18.737H125.272L123.658 16.2642H123.648V17.3831C123.648 17.811 123.675 18.067 123.695 18.2249C123.722 18.4108 123.849 18.4879 124.141 18.5055V18.7019H122.984V18.5055C123.202 18.495 123.313 18.4143 123.336 18.2284C123.356 18.067 123.383 17.8145 123.383 17.3866V16.2887L123.386 16.2852Z" fill="white"/>
</g>
<defs>
<clipPath id="clip0_90_3673">
<rect width="126" height="19" fill="white"/>
</clipPath>
</defs>
</svg>
