<svg width="28" height="28" viewBox="0 0 28 28" fill="none" xmlns="http://www.w3.org/2000/svg">
<path d="M4.625 16.5719C4.97018 16.5719 5.25 16.8671 5.25 17.2313V20.5287C5.25 21.2571 5.80964 21.8476 6.5 21.8476H21.5C22.1904 21.8476 22.75 21.2571 22.75 20.5287V17.2313C22.75 16.8671 23.0298 16.5719 23.375 16.5719C23.7202 16.5719 24 16.8671 24 17.2313V20.5287C24 21.9856 22.8807 23.1666 21.5 23.1666H6.5C5.11929 23.1666 4 21.9856 4 20.5287V17.2313C4 16.8671 4.27982 16.5719 4.625 16.5719Z" fill="black"/>
<path d="M13.5581 19.1485C13.8021 19.406 14.1979 19.406 14.4419 19.1485L18.1919 15.1916C18.436 14.9341 18.436 14.5165 18.1919 14.259C17.9479 14.0015 17.5521 14.0015 17.3081 14.259L14.625 17.09V5.49272C14.625 5.12851 14.3452 4.83325 14 4.83325C13.6548 4.83325 13.375 5.12851 13.375 5.49272V17.09L10.6919 14.259C10.4479 14.0015 10.0521 14.0015 9.80806 14.259C9.56398 14.5165 9.56398 14.9341 9.80806 15.1916L13.5581 19.1485Z" fill="black"/>
</svg>
