<svg width="135" height="20" viewBox="0 0 135 20" fill="none" xmlns="http://www.w3.org/2000/svg">
<g clip-path="url(#clip0_84_454)">
<path d="M2.0741 4.91416C2.0741 2.59553 1.83686 2.3777 0 2.20048V1.22946H7.25037V2.20048C5.51417 2.38139 5.2877 2.59922 5.2877 4.91416V9.64002C5.76938 9.47757 6.25466 9.04929 6.7615 8.50655C7.88662 7.26232 9.42513 5.15414 10.3705 3.59239C10.8702 2.77644 10.7515 2.39247 9.82053 2.26694L9.32807 2.19679V1.22577H15.5827V2.19679C14.0981 2.38139 13.4727 2.59922 12.0312 4.16466C10.6904 5.63411 9.44669 7.19586 8.5049 8.44009C9.85648 10.8843 11.7832 14.2404 13.5086 16.6882C14.5115 18.0912 14.9537 18.4678 15.9961 18.6192V19.5902H11.2153C9.914 17.6001 8.12387 14.4028 6.57099 11.5931C6.0965 10.7513 5.73344 10.6443 5.28051 10.7476V15.9055C5.23378 18.2241 5.50698 18.4419 7.35462 18.6155V19.5865H0.115028V18.6155C1.84045 18.4382 2.0741 18.2241 2.0741 15.9055V4.91416Z" fill="#004B55"/>
<path d="M19.2277 14.0299C19.7848 15.6249 21.2838 18.7299 23.836 18.7299C25.4931 18.7299 26.4996 17.4303 26.4996 15.6138C26.4996 13.7973 25.4284 12.5826 23.4909 11.5267C21.1616 10.2714 18.8682 8.55085 18.8682 5.75595C18.8682 2.96105 20.9603 0.339668 24.7562 0.339668C26.2013 0.339668 27.5241 0.719953 28.376 1.0227C28.4695 2.15617 28.6636 3.40779 28.9188 5.24275L27.88 5.44212C27.2832 3.61454 26.4673 1.60605 24.3716 1.60605C22.9122 1.60605 21.9237 2.86874 21.9237 4.48587C21.9237 6.01809 23.02 7.0851 24.9575 8.07827C27.6032 9.43326 29.6629 11.1205 29.6629 14.1776C29.6629 17.53 27.1287 19.9963 23.3363 19.9963C22.4736 19.9963 21.557 19.856 20.8596 19.6382C20.1227 19.4277 19.5332 19.1804 19.0264 18.9441C18.8035 18.1355 18.5016 16.175 18.214 14.329L19.2313 14.0262L19.2277 14.0299Z" fill="#004B55"/>
<path d="M36.0901 12.11C36.7371 9.93169 37.377 7.88259 38.0708 5.74487H38.1534L39.9939 12.11H36.0901ZM40.4504 13.5832C40.738 14.4323 41.2376 16.0347 41.4964 16.8359C41.9458 18.2278 41.7337 18.4382 40.2096 18.6339V19.6345H47.1975V18.6339C45.828 18.453 45.4398 18.2426 44.631 15.78C43.646 12.7672 42.5604 9.26343 41.4749 5.7781L39.8034 0.339668L38.4266 0.727337L33.333 15.8279C32.5135 18.2573 32.1792 18.4456 30.655 18.6302V19.6308H36.4388V18.6302C34.6055 18.3829 34.4474 18.1872 34.85 16.5811C35.1375 15.4477 35.5114 14.0927 35.6911 13.5795H40.454L40.4504 13.5832Z" fill="#004B55"/>
<path d="M77.1084 8.34041V6.59775H75.4333C75.4549 6.57929 75.4729 6.56083 75.4944 6.53868C76.03 5.98856 75.9761 5.11353 75.9761 5.11353V2.28909C75.9761 2.28909 76.0947 1.39192 75.5699 0.985788C75.0451 0.575967 74.2507 0.660885 74.2507 0.660885H66.1053V2.40355H73.7151V5.11353C73.7151 5.11353 73.7007 5.69319 73.5533 6.10301C73.485 6.295 73.3988 6.46484 73.3269 6.59775H65.1707V8.34041H69.6568V9.62156H66.1053V11.3642H73.7151V14.3327H75.9761V11.2535C75.9761 11.2535 76.0947 10.3563 75.5699 9.94647C75.0451 9.53665 74.2507 9.62156 74.2507 9.62156H71.9178V8.34041H77.1084Z" fill="#595757"/>
<path d="M63.5675 2.7026H62.4819V0.623962H59.4768V1.12609H60.2245V10.8806H62.4819V4.37881H63.5675V2.7026Z" fill="#595757"/>
<path d="M57.9994 4.8957C57.9994 4.13513 57.7586 3.43363 57.3524 2.85398H58.1899V1.17408H55.5011L55.5083 0H52.4996V0.502123H53.2401V1.17777H50.5082V2.85398H51.3889C50.9827 3.43363 50.7418 4.13882 50.7418 4.8957C50.7418 6.87835 52.3666 8.4844 54.3724 8.4844C56.3782 8.4844 58.003 6.87835 58.003 4.8957H57.9994ZM52.9022 4.8957C52.9022 3.83238 53.4773 2.96105 54.2142 2.85398H54.5234C55.2603 2.96105 55.8318 3.83607 55.8318 4.8957C55.8318 6.03286 55.1776 6.95219 54.3688 6.95219C53.56 6.95219 52.9022 6.03286 52.9022 4.8957Z" fill="#595757"/>
<path d="M54.8829 9.8394H51.8741V10.3378H52.6075V12.8115C52.6075 12.8115 52.4888 13.6718 53.0136 14.0668C53.5385 14.4619 54.3329 14.3807 54.3329 14.3807H62.4783V12.7045H54.8649L54.8793 9.8394H54.8829Z" fill="#595757"/>
<path d="M90.2288 6.54606H88.7586V2.40354H90.2288V0.660881H80.1531V2.40354H81.8138V6.54975H80.1531V8.29241H90.2288V6.54975V6.54606ZM84.0748 2.40354H86.4976V6.54975H84.0748V2.40354Z" fill="#595757"/>
<path d="M88.6832 12.638L88.6939 9.66217H85.6852V10.1828H86.4221V12.638H84.499L84.5098 9.66217H81.5011V10.1828H82.2416V12.638H79.2437V14.377H91.1814V12.638H88.6832Z" fill="#595757"/>
<path d="M93.6222 6.90419V8.64685H98.7589V10.744H101.016V8.64685H105.564V6.90419H93.6222Z" fill="#595757"/>
<path d="M96.9401 9.66217H93.9314V10.1828H94.6539V12.6048C94.6539 12.6048 94.6683 13.3469 95.1931 13.8859C95.7179 14.425 96.5195 14.3806 96.5195 14.3806H104.927V12.638H96.9365V9.66217H96.9401Z" fill="#595757"/>
<path d="M93.5575 4.5671L94.2621 6.24331C96.4224 6.24331 98.3455 5.4052 99.5821 4.10559C100.819 5.4089 102.742 6.24331 104.902 6.24331L105.517 4.5671C103.662 4.5671 101.182 3.81392 100.797 2.40354H104.679V0.660881H94.2944V2.40354H98.3491C97.8926 3.86561 95.4123 4.5671 93.5575 4.5671Z" fill="#595757"/>
<path d="M123.149 4.92893C123.149 6.91158 124.773 8.51763 126.779 8.51763C128.785 8.51763 130.41 6.91158 130.41 4.92893C130.41 4.16836 130.169 3.46686 129.763 2.88352H130.6V1.20731H127.911L127.897 0.00369263H124.888V0.505816H125.65V1.20731H122.918V2.88352H123.799C123.393 3.46317 123.152 4.16836 123.152 4.92893H123.149ZM128.242 4.92893C128.242 6.0624 127.588 6.98542 126.779 6.98542C125.97 6.98542 125.312 6.06609 125.312 4.92893C125.312 3.86561 125.888 2.99428 126.625 2.88352H126.934C127.671 2.99428 128.246 3.86561 128.246 4.92893H128.242Z" fill="#595757"/>
<path d="M134.77 0.668266H131.761V1.17039H132.516V10.5483H127.908V9.02345H127.893V9.00129H124.885V9.49972H125.647V10.5483H122.757V12.1839H132.516V14.388H134.777L134.77 0.668266Z" fill="#595757"/>
<path d="M115.398 4.92524C115.398 4.16467 115.158 3.46317 114.751 2.87982H115.589V1.20362H112.9V0.0110779H109.895V0.513201H110.639V1.20731H107.907V2.88352H108.788C108.382 3.46317 108.141 4.16836 108.141 4.92893C108.141 6.91158 109.766 8.51763 111.771 8.51763C113.777 8.51763 115.398 6.91158 115.398 4.92893V4.92524ZM110.305 4.92524C110.305 3.86192 110.88 2.99059 111.617 2.87982H111.926C112.663 2.98689 113.234 3.86192 113.234 4.92524C113.234 6.05871 112.58 6.98173 111.771 6.98173C110.963 6.98173 110.305 6.0624 110.305 4.92524Z" fill="#595757"/>
<path d="M119.874 12.7081V0.675652H116.869V1.17777H117.624V3.13458H115.887V4.81078H117.624V5.49751H115.887V7.17371H117.624V10.7735H112.26V9.81724H109.27V10.3378H109.999V12.7931C109.999 12.7931 109.942 13.5315 110.301 13.9598C110.675 14.4028 111.549 14.4102 111.549 14.4102H118.249C118.249 14.4102 118.946 14.4766 119.446 13.9819C119.942 13.4909 119.874 12.7044 119.874 12.7044V12.7081ZM117.624 12.7377H112.26V12.1322H117.624V12.7377Z" fill="#595757"/>
<path d="M51.2918 16.8654C51.2918 16.415 51.245 16.3781 50.8892 16.3448V16.1455H52.3486V16.3448C52.0143 16.3781 51.9675 16.4187 51.9675 16.8654V17.7589C52.0646 17.7294 52.1581 17.6444 52.2587 17.5411C52.4672 17.3159 52.7692 16.906 52.9489 16.6107C53.0459 16.4556 53.0244 16.3781 52.8375 16.3559L52.7476 16.3448V16.1455H53.9985V16.3448C53.7073 16.3781 53.5851 16.415 53.3012 16.7177C53.0208 17.0168 52.7943 17.3048 52.6361 17.5152C52.8878 17.9693 53.2436 18.6081 53.6067 19.1176C53.7936 19.3797 53.8835 19.4536 54.0812 19.4831V19.6825H53.0963C52.859 19.3133 52.5283 18.7188 52.2192 18.154C52.1293 17.9915 52.0574 17.973 51.9675 17.9878V18.9588C51.9568 19.4093 52.0143 19.4462 52.3701 19.4794V19.6788H50.9071V19.4794C51.2414 19.4462 51.2882 19.4056 51.2882 18.9588V16.8654H51.2918Z" fill="#595757"/>
<path d="M55.5765 16.3227C56.069 16.3227 56.3098 16.9725 56.3098 18.0284C56.3098 18.9994 56.0762 19.4979 55.6916 19.4979C55.1667 19.4979 54.9295 18.7336 54.9295 17.8069C54.9295 16.8802 55.1703 16.3227 55.5729 16.3227H55.5801H55.5765ZM55.6592 16.0716C54.5988 16.0716 54.1387 17.0463 54.1387 17.9287C54.1387 18.9736 54.6994 19.7489 55.5945 19.7489C56.4896 19.7489 57.0827 19.0438 57.0827 17.866C57.0827 16.7916 56.4788 16.0716 55.6592 16.0716Z" fill="#595757"/>
<path d="M58.65 16.6291C58.65 16.5073 58.6572 16.4593 58.6859 16.4261C58.7147 16.3965 58.7758 16.3781 58.8764 16.3781C59.1424 16.3781 59.4696 16.5885 59.4696 17.135C59.4696 17.4192 59.3941 17.6408 59.2467 17.7626C59.1317 17.8623 58.9843 17.9103 58.7902 17.9103H58.6536V16.6291H58.65ZM57.9706 18.9588C57.9706 19.4093 57.9239 19.4573 57.568 19.4794V19.6788H59.0382V19.4794C58.6967 19.4573 58.65 19.4056 58.65 18.9588V18.1429H58.7506C58.9052 18.1503 58.9879 18.213 59.0562 18.3866C59.1712 18.6782 59.3222 18.9884 59.4588 19.2062C59.6745 19.5606 59.847 19.7046 60.4581 19.7268C60.5336 19.7268 60.6019 19.7342 60.6738 19.7379L60.7097 19.5606C60.5983 19.5163 60.5156 19.4388 60.4006 19.3059C60.3107 19.2062 60.1885 19.0327 60.0052 18.7299C59.8578 18.4899 59.6852 18.106 59.6133 17.9472C59.9584 17.7885 60.2136 17.5189 60.2136 17.05C60.2136 16.7177 60.0806 16.4741 59.8614 16.3264C59.6673 16.1972 59.4084 16.1344 59.0418 16.1344H57.6039V16.3338C57.9382 16.3781 57.9778 16.3928 57.9778 16.8359L57.9706 18.9515V18.9588Z" fill="#595757"/>
<path d="M61.4322 16.858C61.4322 16.415 61.3854 16.3744 61.0511 16.3412V16.1418H63.4056C63.4128 16.2304 63.4344 16.6291 63.4559 16.954L63.2439 16.9799C63.1828 16.751 63.1217 16.6107 63.0426 16.5258C62.9599 16.4372 62.8089 16.3965 62.5321 16.3965H62.3272C62.1511 16.3965 62.1259 16.4187 62.1259 16.5959V17.6888H62.4962C62.8952 17.6888 62.9132 17.6592 62.9958 17.2642H63.2079V18.4161H62.9958C62.9132 18.0026 62.8988 17.9767 62.4962 17.9767H62.1259V18.9478C62.1259 19.2099 62.1475 19.3207 62.2446 19.3724C62.3272 19.4167 62.4746 19.4204 62.6759 19.4204C62.9168 19.4204 63.1109 19.3797 63.2151 19.2468C63.305 19.1361 63.3841 18.9625 63.4775 18.7299L63.6896 18.7779C63.6608 18.981 63.5674 19.52 63.5207 19.6751H60.9792V19.4757C61.3818 19.4425 61.4286 19.3982 61.4286 18.9551V16.8544L61.4322 16.858Z" fill="#595757"/>
<path d="M65.0412 18.2943C65.1634 17.8955 65.2821 17.5226 65.4151 17.1349H65.4294L65.7745 18.2943H65.0412ZM65.8644 18.5822C65.9075 18.7041 65.9974 18.981 66.0513 19.1397C66.1412 19.4093 66.1016 19.4425 65.8177 19.4794V19.6788H67.1836V19.4794C66.9284 19.4462 66.8529 19.4093 66.6984 18.9514C66.5078 18.3829 66.2993 17.7331 66.0945 17.0869L65.7745 16.0716L65.487 16.1492L64.5092 18.9662C64.3547 19.413 64.2899 19.4425 63.9988 19.4794V19.6788H65.1131V19.4794C64.7644 19.4314 64.7357 19.3982 64.8148 19.1065C64.8723 18.8998 64.9334 18.6672 64.9657 18.5822H65.868H65.8644Z" fill="#595757"/>
<path d="M68.0176 17.1423C68.0176 16.7731 68.0176 16.6587 67.9277 16.5331C67.8379 16.4039 67.7193 16.367 67.5251 16.3485V16.1418H68.4382L70.0989 18.5084H70.1097V17.5337C70.1097 17.0833 70.0809 16.8101 70.0558 16.6365C70.027 16.4519 69.894 16.3633 69.5813 16.3485V16.1418H70.8142V16.3485C70.5806 16.3596 70.4656 16.4519 70.444 16.6365C70.4224 16.8101 70.3937 17.0833 70.3937 17.5337V19.7231H70.0378L68.3088 17.1202H68.298V18.298C68.298 18.7484 68.3267 19.0179 68.3483 19.1841C68.3771 19.3797 68.5137 19.461 68.8264 19.4794V19.6862H67.5863V19.4794C67.8199 19.4683 67.9385 19.3834 67.9637 19.1878C67.9853 19.0179 68.014 18.7521 68.014 18.3017V17.146L68.0176 17.1423Z" fill="#595757"/>
<path d="M72.6295 18.6118C72.7409 18.9145 73.0393 19.4979 73.5174 19.4979C73.8229 19.4979 74.0098 19.2579 74.0098 18.9367C74.0098 18.6155 73.8193 18.3829 73.4419 18.1872C72.9674 17.9398 72.5468 17.6112 72.5468 17.098C72.5468 16.5442 72.953 16.0716 73.6935 16.0716C73.9703 16.0716 74.2363 16.1418 74.4053 16.2045C74.4232 16.415 74.4592 16.655 74.5095 17.0057L74.2974 17.0463C74.1788 16.6993 74.017 16.3227 73.6252 16.3227C73.3592 16.3227 73.1687 16.5479 73.1687 16.8507C73.1687 17.1202 73.37 17.3195 73.7438 17.5042C74.283 17.77 74.6497 18.0949 74.6497 18.6524C74.6497 19.2837 74.1608 19.7526 73.4167 19.7526C73.2514 19.7526 73.0752 19.7268 72.9351 19.6825C72.7913 19.6419 72.6762 19.5976 72.5792 19.5496C72.536 19.4019 72.4749 19.029 72.421 18.6782L72.6259 18.6155L72.6295 18.6118Z" fill="#595757"/>
<path d="M76.0372 16.3965H75.8682C75.6346 16.3965 75.5124 16.4667 75.4333 16.5627C75.365 16.6439 75.3003 16.799 75.2428 17.0611H75.0271C75.0451 16.6513 75.0774 16.2747 75.0846 15.9978H75.2176C75.2895 16.0975 75.3398 16.1344 75.4728 16.1344H77.3169C77.4391 16.1344 77.4822 16.1012 77.5613 15.9978H77.6979C77.7051 16.2267 77.7267 16.655 77.7482 17.0426L77.5326 17.0574C77.4714 16.7694 77.4067 16.6107 77.3277 16.5221C77.2486 16.4298 77.1084 16.3891 76.9394 16.3891H76.7345V18.9515C76.7345 19.4019 76.7813 19.4388 77.2054 19.472V19.6714H75.5951V19.472C75.9941 19.4388 76.0444 19.3982 76.0444 18.9515V16.3891L76.0372 16.3965Z" fill="#595757"/>
<path d="M78.7224 18.2943C78.8446 17.8955 78.9632 17.5226 79.0962 17.1349H79.1106L79.4557 18.2943H78.7224ZM79.5455 18.5822C79.5887 18.7041 79.6785 18.981 79.7325 19.1397C79.8223 19.4093 79.7828 19.4425 79.4988 19.4794V19.6788H80.8648V19.4794C80.6096 19.4462 80.5341 19.4093 80.3795 18.9514C80.189 18.3829 79.9841 17.7331 79.7756 17.0869L79.4557 16.0716L79.1681 16.1492L78.1904 18.9662C78.0358 19.413 77.9711 19.4425 77.6799 19.4794V19.6788H78.7943V19.4794C78.4456 19.4314 78.4168 19.3982 78.4959 19.1065C78.5534 18.8998 78.6145 18.6672 78.6469 18.5822H79.5491H79.5455Z" fill="#595757"/>
<path d="M81.6988 17.1423C81.6988 16.7731 81.6988 16.6587 81.6089 16.5331C81.519 16.4039 81.4004 16.367 81.2063 16.3485V16.1418H82.1193L83.7801 18.5084H83.7908V17.5337C83.7908 17.0833 83.7621 16.8101 83.7369 16.6365C83.7082 16.4519 83.5752 16.3633 83.2624 16.3485V16.1418H84.4954V16.3485C84.2617 16.3596 84.1467 16.4519 84.1251 16.6365C84.1036 16.8101 84.0748 17.0833 84.0748 17.5337V19.7231H83.7189L81.9899 17.1202H81.9791V18.298C81.9791 18.7484 82.0079 19.0179 82.0295 19.1841C82.0582 19.3797 82.1948 19.461 82.5076 19.4794V19.6862H81.2674V19.4794C81.5047 19.4683 81.6197 19.3834 81.6448 19.1878C81.6664 19.0179 81.6952 18.7521 81.6952 18.3017V17.146L81.6988 17.1423Z" fill="#595757"/>
<path d="M86.0124 16.6956C86.0124 16.5295 86.0267 16.463 86.0699 16.4335C86.1022 16.4076 86.1597 16.3818 86.264 16.3818C86.4904 16.3818 86.7457 16.4667 86.929 16.6919C87.1195 16.9208 87.2489 17.3011 87.2489 17.8734C87.2489 18.9404 86.8032 19.4351 86.3215 19.4351C86.0663 19.4351 86.0124 19.3059 86.0124 18.9441V16.703V16.6956ZM85.3186 18.9515C85.3186 19.4019 85.2719 19.4462 84.9088 19.4794V19.6788H86.0555C86.6486 19.6788 87.1195 19.5422 87.4682 19.2284C87.8097 18.9219 88.0218 18.453 88.0218 17.77C88.0218 17.2679 87.8528 16.8839 87.6228 16.6144C87.3244 16.2673 86.8319 16.1381 86.2352 16.1381H84.9448V16.3375C85.2719 16.3707 85.3222 16.415 85.3222 16.8654V18.9515H85.3186Z" fill="#595757"/>
<path d="M89.136 18.2943C89.2582 17.8955 89.3768 17.5226 89.5098 17.1349H89.5242L89.8693 18.2943H89.136ZM89.9592 18.5822C90.0023 18.7041 90.0922 18.981 90.1461 19.1397C90.236 19.4093 90.1964 19.4425 89.9088 19.4794V19.6788H91.2748V19.4794C91.0196 19.4462 90.9441 19.4093 90.7895 18.9514C90.599 18.3829 90.3905 17.7331 90.1856 17.0869L89.8657 16.0716L89.5781 16.1492L88.6004 18.9662C88.4458 19.413 88.3775 19.4425 88.09 19.4794V19.6788H89.2043V19.4794C88.8556 19.4314 88.8269 19.3982 88.9059 19.1065C88.9635 18.8998 89.0246 18.6672 89.0569 18.5822H89.9592Z" fill="#595757"/>
<path d="M92.7918 16.6291C92.7918 16.5073 92.799 16.4593 92.8278 16.4261C92.8565 16.3965 92.9176 16.3781 93.0183 16.3781C93.2843 16.3781 93.6114 16.5885 93.6114 17.135C93.6114 17.4192 93.5359 17.6408 93.3885 17.7626C93.2735 17.8623 93.1261 17.9103 92.932 17.9103H92.7954V16.6291H92.7918ZM92.1124 18.9588C92.1124 19.4093 92.0657 19.4573 91.7098 19.4794V19.6788H93.18V19.4794C92.8386 19.4573 92.7918 19.4056 92.7918 18.9588V18.1429H92.8925C93.047 18.1503 93.1297 18.213 93.198 18.3866C93.313 18.6782 93.464 18.9884 93.6006 19.2062C93.8163 19.5606 93.9888 19.7046 94.5999 19.7268C94.6754 19.7268 94.7437 19.7342 94.8156 19.7379L94.8515 19.5606C94.7401 19.5163 94.6574 19.4388 94.5424 19.3059C94.4525 19.2062 94.3303 19.0327 94.147 18.7299C93.9996 18.4899 93.8271 18.106 93.7552 17.9472C94.1003 17.7885 94.3555 17.5189 94.3555 17.05C94.3555 16.7177 94.2225 16.4741 94.0032 16.3264C93.8091 16.1972 93.5503 16.1344 93.1836 16.1344H91.7458V16.3338C92.0801 16.3781 92.1196 16.3928 92.1196 16.8359L92.1124 18.9515V18.9588Z" fill="#595757"/>
<path d="M96.2714 16.6956C96.2714 16.5295 96.2858 16.463 96.3289 16.4335C96.3577 16.4076 96.4188 16.3818 96.523 16.3818C96.7495 16.3818 97.0047 16.4667 97.188 16.6919C97.3785 16.9208 97.508 17.3011 97.508 17.8734C97.508 18.9404 97.0622 19.4351 96.5805 19.4351C96.3253 19.4351 96.2714 19.3059 96.2714 18.9441V16.703V16.6956ZM95.5776 18.9515C95.5776 19.4019 95.5309 19.4462 95.1678 19.4794V19.6788H96.3145C96.9076 19.6788 97.3785 19.5422 97.7272 19.2284C98.0687 18.9219 98.2808 18.453 98.2808 17.77C98.2808 17.2679 98.1118 16.8839 97.8818 16.6144C97.5834 16.2673 97.091 16.1381 96.4943 16.1381H95.2038V16.3375C95.5309 16.3707 95.5812 16.415 95.5812 16.8654V18.9515H95.5776Z" fill="#595757"/>
<path d="M99.0356 18.6118C99.1471 18.9145 99.4454 19.4979 99.9235 19.4979C100.229 19.4979 100.416 19.2579 100.416 18.9367C100.416 18.6155 100.225 18.3829 99.848 18.1872C99.3735 17.9398 98.953 17.6112 98.953 17.098C98.953 16.5442 99.3592 16.0716 100.1 16.0716C100.376 16.0716 100.642 16.1418 100.811 16.2045C100.829 16.415 100.865 16.655 100.916 17.0057L100.707 17.0463C100.589 16.6993 100.427 16.3227 100.035 16.3227C99.769 16.3227 99.5784 16.5479 99.5784 16.8507C99.5784 17.1202 99.7797 17.3195 100.154 17.5042C100.693 17.77 101.063 18.0949 101.063 18.6524C101.063 19.2837 100.574 19.7526 99.8301 19.7526C99.6647 19.7526 99.4886 19.7268 99.3484 19.6825C99.2046 19.6419 99.0896 19.5976 98.9925 19.5496C98.9494 19.4019 98.8883 19.029 98.8344 18.6782L99.0392 18.6155L99.0356 18.6118Z" fill="#595757"/>
<path d="M103.515 18.2943C103.637 17.8955 103.755 17.5226 103.888 17.1349H103.903L104.248 18.2943H103.515ZM104.338 18.5822C104.381 18.7041 104.471 18.981 104.525 19.1397C104.615 19.4093 104.575 19.4425 104.287 19.4794V19.6788H105.653V19.4794C105.398 19.4462 105.323 19.4093 105.168 18.9514C104.978 18.3829 104.769 17.7331 104.564 17.0869L104.244 16.0716L103.957 16.1492L102.979 18.9662C102.824 19.413 102.756 19.4425 102.469 19.4794V19.6788H103.583V19.4794C103.234 19.4314 103.205 19.3982 103.284 19.1065C103.342 18.8998 103.403 18.6672 103.435 18.5822H104.338Z" fill="#595757"/>
<path d="M106.211 18.6118C106.322 18.9145 106.62 19.4979 107.098 19.4979C107.404 19.4979 107.591 19.2579 107.591 18.9367C107.591 18.6155 107.4 18.3829 107.023 18.1872C106.548 17.9398 106.128 17.6112 106.128 17.098C106.128 16.5442 106.534 16.0716 107.275 16.0716C107.548 16.0716 107.817 16.1418 107.986 16.2045C108.004 16.415 108.04 16.655 108.091 17.0057L107.878 17.0463C107.76 16.6993 107.598 16.3227 107.206 16.3227C106.94 16.3227 106.75 16.5479 106.75 16.8507C106.75 17.1202 106.951 17.3195 107.325 17.5042C107.864 17.77 108.234 18.0949 108.234 18.6524C108.234 19.2837 107.745 19.7526 107.001 19.7526C106.836 19.7526 106.66 19.7268 106.52 19.6825C106.376 19.6419 106.261 19.5976 106.164 19.5496C106.121 19.4019 106.06 19.029 106.006 18.6782L106.211 18.6155V18.6118Z" fill="#595757"/>
<path d="M108.96 18.6118C109.072 18.9145 109.37 19.4979 109.848 19.4979C110.154 19.4979 110.341 19.2579 110.341 18.9367C110.341 18.6155 110.15 18.3829 109.773 18.1872C109.298 17.9398 108.878 17.6112 108.878 17.098C108.878 16.5442 109.284 16.0716 110.024 16.0716C110.301 16.0716 110.567 16.1418 110.736 16.2045C110.754 16.415 110.794 16.655 110.84 17.0057L110.632 17.0463C110.513 16.6993 110.352 16.3227 109.96 16.3227C109.694 16.3227 109.503 16.5479 109.503 16.8507C109.503 17.1202 109.705 17.3195 110.078 17.5042C110.618 17.77 110.988 18.0949 110.988 18.6524C110.988 19.2837 110.499 19.7526 109.755 19.7526C109.59 19.7526 109.413 19.7268 109.273 19.6825C109.129 19.6419 109.014 19.5976 108.917 19.5496C108.874 19.4019 108.813 19.029 108.759 18.6782L108.964 18.6155L108.96 18.6118Z" fill="#595757"/>
<path d="M112.958 16.3227C113.45 16.3227 113.691 16.9725 113.691 18.0284C113.691 18.9994 113.457 19.4979 113.073 19.4979C112.548 19.4979 112.311 18.7336 112.311 17.8069C112.311 16.8802 112.551 16.3227 112.954 16.3227H112.961H112.958ZM113.04 16.0716C111.98 16.0716 111.52 17.0463 111.52 17.9287C111.52 18.9736 112.084 19.7489 112.976 19.7489C113.867 19.7489 114.464 19.0438 114.464 17.866C114.464 16.7916 113.86 16.0716 113.04 16.0716Z" fill="#595757"/>
<path d="M117.544 17.1091C117.347 16.5147 117.084 16.3227 116.768 16.3227C116.254 16.3227 115.905 17.0316 115.905 17.8475C115.905 18.837 116.283 19.5016 116.775 19.5016C117.153 19.5016 117.368 19.173 117.634 18.6856L117.854 18.7299C117.789 18.9662 117.688 19.4093 117.606 19.6197C117.473 19.6566 117.106 19.7489 116.779 19.7489C115.56 19.7489 115.118 18.8333 115.118 17.962C115.118 16.8617 115.801 16.0753 116.901 16.0753C117.232 16.0753 117.537 16.1529 117.67 16.1861C117.706 16.5221 117.728 16.7584 117.757 17.0796L117.544 17.1128V17.1091Z" fill="#595757"/>
<path d="M118.655 16.8654C118.655 16.415 118.601 16.3781 118.263 16.3448V16.1455H119.741V16.3448C119.399 16.3781 119.349 16.4187 119.349 16.8654V18.9588C119.349 19.4093 119.399 19.4462 119.741 19.4794V19.6788H118.263V19.4794C118.601 19.4462 118.655 19.4056 118.655 18.9588V16.8654Z" fill="#595757"/>
<path d="M121.233 18.2943C121.355 17.8955 121.473 17.5226 121.606 17.1349H121.621L121.966 18.2943H121.233ZM122.056 18.5822C122.099 18.7041 122.189 18.981 122.243 19.1397C122.333 19.4093 122.293 19.4425 122.005 19.4794V19.6788H123.371V19.4794C123.116 19.4462 123.041 19.4093 122.886 18.9514C122.696 18.3829 122.487 17.7331 122.282 17.0869L121.962 16.0716L121.675 16.1492L120.697 18.9662C120.542 19.413 120.474 19.4425 120.187 19.4794V19.6788H121.301V19.4794C120.952 19.4314 120.923 19.3982 121.003 19.1065C121.06 18.8998 121.121 18.6672 121.153 18.5822H122.056Z" fill="#595757"/>
<path d="M124.227 16.3965H124.058C123.824 16.3965 123.702 16.4667 123.623 16.5627C123.555 16.6439 123.49 16.799 123.432 17.0611H123.217C123.235 16.6513 123.267 16.2747 123.274 15.9978H123.407C123.479 16.0975 123.53 16.1344 123.663 16.1344H125.503C125.625 16.1344 125.668 16.1012 125.747 15.9978H125.884C125.891 16.2267 125.913 16.655 125.934 17.0426L125.719 17.0574C125.658 16.7694 125.593 16.6107 125.514 16.5221C125.435 16.4298 125.294 16.3891 125.126 16.3891H124.921V18.9515C124.921 19.4019 124.967 19.4388 125.392 19.472V19.6714H123.781V19.472C124.18 19.4388 124.23 19.3982 124.23 18.9515V16.3891L124.227 16.3965Z" fill="#595757"/>
<path d="M126.786 16.8654C126.786 16.415 126.732 16.3781 126.394 16.3448V16.1455H127.872V16.3448C127.53 16.3781 127.48 16.4187 127.48 16.8654V18.9588C127.48 19.4093 127.53 19.4462 127.872 19.4794V19.6788H126.394V19.4794C126.732 19.4462 126.786 19.4056 126.786 18.9588V16.8654Z" fill="#595757"/>
<path d="M129.799 16.3227C130.291 16.3227 130.532 16.9725 130.532 18.0284C130.532 18.9994 130.298 19.4979 129.914 19.4979C129.389 19.4979 129.152 18.7336 129.152 17.8069C129.152 16.8802 129.392 16.3227 129.795 16.3227H129.799ZM129.881 16.0716C128.821 16.0716 128.361 17.0463 128.361 17.9287C128.361 18.9736 128.925 19.7489 129.817 19.7489C130.708 19.7489 131.305 19.0438 131.305 17.866C131.305 16.7916 130.701 16.0716 129.885 16.0716H129.878H129.881Z" fill="#595757"/>
<path d="M132.2 17.1423C132.2 16.7731 132.2 16.6587 132.11 16.5331C132.02 16.4039 131.901 16.367 131.707 16.3485V16.1418H132.62L134.281 18.5084H134.292V17.5337C134.292 17.0833 134.263 16.8101 134.238 16.6365C134.209 16.4519 134.076 16.3633 133.763 16.3485V16.1418H134.996V16.3485C134.763 16.3596 134.648 16.4519 134.626 16.6365C134.605 16.8101 134.576 17.0833 134.576 17.5337V19.7231H134.22L132.491 17.1202H132.48V18.298C132.48 18.7484 132.509 19.0179 132.53 19.1841C132.559 19.3797 132.696 19.461 133.009 19.4794V19.6862H131.768V19.4794C132.002 19.4683 132.121 19.3834 132.146 19.1878C132.167 19.0179 132.196 18.7521 132.196 18.3017V17.146L132.2 17.1423Z" fill="#595757"/>
</g>
<defs>
<clipPath id="clip0_84_454">
<rect width="135" height="20" fill="white"/>
</clipPath>
</defs>
</svg>
